<?xml version="1.0" encoding="utf-8"?>
<svg width="700px" height="450px" viewBox="0 0 700 450" version="1.1" xmlns:xlink="http://www.w3.org/1999/xlink" xmlns="http://www.w3.org/2000/svg">
  <desc>Created with Lunacy</desc>
  <defs>
    <path d="M0 0L700 0L700 450L0 450L0 0Z" id="path_1" />
    <clipPath id="mask_1">
      <use xlink:href="#path_1" />
    </clipPath>
  </defs>
  <g id="Mask-group" opacity="0.5">
    <path d="M0 0L700 0L700 450L0 450L0 0Z" id="Rectangle" fill="#FFFFFF" stroke="none" />
    <g clip-path="url(#mask_1)">
      <path d="M0 0L233 0L233 450L0 450L0 0Z" id="Rectangle-2" fill="#E41B23" stroke="none" />
      <path d="M0 0L233 0L233 450L0 450L0 0Z" transform="translate(467 0)" id="Rectangle-3" fill="#6CAEE0" stroke="none" />
      <g id="logo.1574320377158" transform="translate(282 146)">
        <path d="M0 0L137 0L137 159.057L0 159.057L0 0Z" transform="translate(0 0.0001831055)" id="Background" fill="none" stroke="none" />
        <g id="BeerJsLogo-noletter">
          <g id="Grupo_64">
            <g id="beer_5_">
              <path d="M86.95 0L0 0.170863L0 104.552C0 111.415 5.56345 116.978 12.4263 116.978L74.5579 116.978C81.4207 116.978 86.9842 111.415 86.9842 104.552L86.9842 0.062133L86.95 0Z" transform="translate(15.84354 38.97217)" id="Trazado_73" fill="#B5CDE3" stroke="none" />
              <path d="M86.9842 104.552L86.9842 0.0621306L86.95 0L0 0.17086L0 104.552L86.9842 104.552Z" transform="translate(15.84354 38.97217)" id="Trazado_74" fill="#FBDE34" stroke="none" />
              <path d="M31.0657 12.4263L31.0657 65.5487C31.0657 72.4116 25.5023 77.975 18.6394 77.975L0 77.975L0 65.5487L18.6394 65.5487L18.6394 12.4263L0 12.4263L0 0L18.6394 0C25.5023 0 31.0657 5.56345 31.0657 12.4263L31.0657 12.4263Z" transform="translate(102.8277 53.12265)" id="Trazado_75" fill="#B5CDE3" stroke="none" />
              <path d="M3.10658 0C1.39086 0 0 1.39085 0 3.10656C0 4.82227 1.39086 6.21312 3.10658 6.21312C4.8223 6.21312 6.21317 4.82227 6.21317 3.10656C6.21317 1.39085 4.8223 0 3.10658 0L3.10658 0Z" transform="translate(74.71313 140.1969)" id="Trazado_77" fill="#343433" stroke="none" />
              <path d="M12.1396 0L13.1511 97.0873L0 97.0873L0 0L12.1396 0Z" transform="translate(87.29478 43.53729)" id="Trazado_90" fill="#F4AC03" stroke="none" />
              <path d="M90.4014 159.057L28.2698 159.057C19.6957 159.047 12.7472 152.099 12.737 143.524L12.737 86.4872C11.6935 86.8764 10.5887 87.0753 9.47506 87.0744C4.25042 87.0744 0 82.8936 0 77.7547L0 40.4757C0 24.5906 13.4204 11.7079 29.6585 12.6063C34.1724 5.68955 41.5283 1.13815 49.7327 0.185647C57.937 -0.766854 66.14 1.97819 72.1185 7.67683C73.9763 6.91251 75.9662 6.5208 77.9751 6.52398C83.2951 6.52852 88.2441 9.25104 91.096 13.7421C93.9431 12.6694 97.0406 12.4467 100.012 13.1012C105.922 14.4082 110.529 19.0405 111.802 24.9583C113.076 30.8761 110.783 36.9932 105.933 40.6159L105.933 50.016L121.466 50.016C130.041 50.0253 136.99 56.9735 137 65.5489L137 118.671C136.99 127.246 130.042 134.194 121.467 134.204L105.934 134.204L105.934 143.524C105.924 152.098 98.9759 159.047 90.4014 159.057ZM6.21315 77.7547C6.21315 79.4384 7.7071 80.8613 9.47506 80.8613C11.2048 80.8613 12.6273 79.4369 12.7366 77.6068L12.7366 52.9017C12.7366 51.1963 14.1114 49.8097 15.8168 49.7952C21.6913 49.7489 27.0276 46.3639 29.5727 41.0691C30.6206 38.9457 32.7799 37.5981 35.1478 37.5897C37.3907 37.576 39.5483 38.4484 41.1513 40.0172C43.5133 42.3401 46.7054 43.6233 50.018 43.5817C53.3306 43.54 56.4894 42.177 58.7923 39.7954C60.1581 38.3883 62.0345 37.5929 63.9955 37.5897C70.9958 37.5897 75.8809 39.5258 78.5153 43.3441C80.771 46.6136 80.771 50.3068 80.771 52.7536L80.771 65.3284C80.771 67.0441 82.1618 68.4349 83.8776 68.4349C85.5933 68.4349 86.9841 67.0441 86.9841 65.3284L86.9841 39.0995C86.9843 38.0192 87.5457 37.0165 88.4667 36.4517C89.3877 35.887 90.5359 35.8412 91.4989 36.331C99.4086 40.3537 107.452 33.9156 105.684 26.0671C104.967 23.1046 102.846 20.68 100.006 19.5747C97.165 18.4693 93.9634 18.8228 91.4324 20.5213C90.6339 21.0566 89.6326 21.1921 88.7205 20.8882C87.8085 20.5843 87.0885 19.8753 86.7707 18.968C85.4569 15.2359 81.9317 12.7386 77.9751 12.7371C76.2709 12.7291 74.5996 13.2056 73.1558 14.1109C71.8729 14.9224 70.1914 14.6879 69.1794 13.5563C64.5301 8.26908 57.5974 5.57696 50.5982 6.34089C43.5991 7.10482 37.4104 11.2291 34.0111 17.3948C33.3914 18.4995 32.1631 19.1173 30.9067 18.9562C29.9712 18.8361 29.0289 18.7758 28.0856 18.7757C16.0243 18.7757 6.21315 28.4844 6.21315 40.4758L6.21315 77.7547ZM90.4014 152.844L28.2698 152.844C24.3222 152.839 20.8045 150.351 19.4844 146.631L65.3965 146.631C67.1123 146.631 68.5031 145.24 68.5031 143.524C68.5031 141.808 67.1123 140.417 65.3965 140.417L18.9501 140.417L18.9501 55.7651C25.9936 54.6975 32.0555 50.2207 35.1478 43.8029C35.7618 43.7897 36.3556 44.0224 36.7971 44.4494C40.3409 47.9334 45.1296 49.8578 50.0989 49.7947C55.0682 49.7317 59.8064 47.6864 63.2608 44.1136C63.4537 43.9151 63.7187 43.803 63.9955 43.8029C68.8315 43.8029 71.9958 44.8358 73.4013 46.8725C74.5597 48.55 74.5588 50.8846 74.5578 52.7595L74.5578 65.3283C74.62 73.315 82.0136 74.4955 83.8776 74.5577C85.9279 74.4955 93.1352 73.8742 93.1973 65.328L93.1973 43.4382C95.35 43.8735 97.5681 43.8742 99.7211 43.4404L99.7211 140.417L90.2429 140.417C89.138 140.417 88.1167 141.005 87.564 141.962C87.0113 142.919 87.0113 144.098 87.564 145.055C88.1167 146.011 89.138 146.6 90.2429 146.599L99.1868 146.599C97.8702 150.327 94.3544 152.826 90.4014 152.844ZM121.467 56.2292C126.612 56.235 130.781 60.4042 130.787 65.5489L130.787 118.671C130.781 123.816 126.612 127.985 121.467 127.991L105.934 127.991L105.934 121.778L121.467 121.778C123.183 121.778 124.574 120.387 124.574 118.671L124.574 65.5489C124.574 63.8332 123.183 62.4424 121.467 62.4424L105.934 62.4424L105.934 56.2292L121.467 56.2292ZM118.361 68.6555L105.934 68.6555L105.934 115.565L118.361 115.565L118.361 68.6555Z" id="Trazado_80" fill="#343433" fill-rule="evenodd" stroke="none" />
              <g id="Grupo_35" transform="translate(59.57854 59.07297)">
                <path d="M0 3.30881C0 1.4814 1.48141 0 3.30882 0C5.13623 0 6.61765 1.4814 6.61765 3.30881C6.61765 5.13621 5.13623 6.61761 3.30882 6.61761C1.48141 6.61761 0 5.13621 0 3.30881Z" id="Elipse_3" fill="#F4AC03" stroke="none" />
              </g>
              <g id="Grupo_36" transform="translate(49.08172 118.3859)">
                <path d="M0 3.30883C0 1.48141 1.48141 0 3.30883 0C5.13625 0 6.61766 1.48141 6.61766 3.30883C6.61766 5.13625 5.13625 6.61766 3.30883 6.61766C1.48141 6.61766 0 5.13625 0 3.30883Z" id="Elipse_4" fill="#F4AC03" stroke="none" />
              </g>
              <path d="M0 3.3088C0 1.4814 1.48141 0 3.30882 0C5.13623 0 6.61763 1.4814 6.61763 3.3088C6.61763 5.13621 5.13623 6.61761 3.30882 6.61761C1.48141 6.61761 0 5.13621 0 3.3088Z" transform="translate(47.29358 78.7932)" id="Elipse_21" fill="#F4AC03" stroke="none" />
              <g id="Grupo_37" transform="translate(25.33351 64.39735)">
                <path d="M0 2.08977C0 0.935621 0.935631 0 2.08979 0C3.24395 0 4.17958 0.935621 4.17958 2.08977C4.17958 3.24391 3.24395 4.17953 2.08979 4.17953C0.935631 4.17953 0 3.24391 0 2.08977Z" id="Elipse_6" fill="#F4AC03" stroke="none" />
              </g>
              <g id="Grupo_38" transform="translate(64.42789 96.07911)">
                <path d="M0 2.08978C0 0.935626 0.935636 0 2.0898 0C3.24397 0 4.1796 0.935626 4.1796 2.08978C4.1796 3.24393 3.24397 4.17956 2.0898 4.17956C0.935636 4.17956 0 3.24393 0 2.08978Z" id="Elipse_7" fill="#F4AC03" stroke="none" />
              </g>
              <g id="Grupo_39" transform="translate(32.42239 104.5079)">
                <path d="M0 2.08978C0 0.935626 0.93564 0 2.08981 0C3.24398 0 4.17962 0.935626 4.17962 2.08978C4.17962 3.24393 3.24398 4.17956 2.08981 4.17956C0.93564 4.17956 0 3.24393 0 2.08978Z" id="Elipse_8" fill="#F4AC03" stroke="none" />
              </g>
              <path d="M105.608 22.2775C107.972 32.7694 97.1498 41.1637 86.9841 35.9931L86.9841 62.2219C86.9841 65.6533 84.2024 68.435 80.771 68.435C77.3396 68.435 74.5578 65.6533 74.5578 62.2219L74.5578 49.7956C74.5578 45.5054 74.7132 37.5898 60.8889 37.5898C59.7692 37.5888 58.6972 38.043 57.919 38.848C55.0406 41.8248 51.0925 43.5287 46.952 43.5812C42.8115 43.6337 38.8215 42.0304 35.8685 39.1276C34.8457 38.13 33.47 37.5772 32.0412 37.5898C30.8579 37.5895 29.7777 38.2634 29.2577 39.3264C26.1873 45.6717 19.7857 49.7283 12.737 49.7956L12.737 74.5798C12.5816 78.0778 9.80125 80.8613 6.36848 80.8613C2.93571 80.8613 0 78.0778 0 74.6482L0 37.3693C0 22.5913 13.0507 10.8267 28.1953 12.7683C32.0853 5.72787 39.1569 1.01965 47.153 0.146375C55.149 -0.726903 63.0702 2.34392 68.3882 8.37872C70.3284 7.15787 72.5761 6.51459 74.8685 6.52409C80.1456 6.523 84.8478 9.85503 86.5958 14.8342C89.9778 12.5652 94.2569 12.0973 98.0492 13.582C101.842 15.0667 104.666 18.3155 105.608 22.2775L105.608 22.2775Z" transform="translate(3.106576 3.106463)" id="Trazado_76" fill="#EEEEEE" stroke="none" />
              <path d="M90.4014 159.057L28.2698 159.057C19.6957 159.047 12.7472 152.099 12.737 143.524L12.737 86.4872C11.6935 86.8764 10.5887 87.0753 9.47506 87.0744C4.25042 87.0744 0 82.8936 0 77.7547L0 40.4757C0 24.5906 13.4204 11.7079 29.6585 12.6063C34.1724 5.68955 41.5283 1.13815 49.7327 0.185647C57.937 -0.766854 66.14 1.97819 72.1185 7.67683C73.9763 6.91251 75.9662 6.5208 77.9751 6.52398C83.2951 6.52852 88.2441 9.25104 91.096 13.7421C93.9431 12.6694 97.0406 12.4467 100.012 13.1012C105.922 14.4082 110.529 19.0405 111.802 24.9583C113.076 30.8761 110.783 36.9932 105.933 40.6159L105.933 50.016L121.466 50.016C130.041 50.0253 136.99 56.9735 137 65.5489L137 118.671C136.99 127.246 130.042 134.194 121.467 134.204L105.934 134.204L105.934 143.524C105.924 152.098 98.9759 159.047 90.4014 159.057ZM6.21315 77.7547C6.21315 79.4384 7.7071 80.8613 9.47506 80.8613C11.2048 80.8613 12.6273 79.4369 12.7366 77.6068L12.7366 52.9017C12.7366 51.1963 14.1114 49.8097 15.8168 49.7952C21.6913 49.7489 27.0276 46.3639 29.5727 41.0691C30.6206 38.9457 32.7799 37.5981 35.1478 37.5897C37.3907 37.576 39.5483 38.4484 41.1513 40.0172C43.5133 42.3401 46.7054 43.6233 50.018 43.5817C53.3306 43.54 56.4894 42.177 58.7923 39.7954C60.1581 38.3883 62.0345 37.5929 63.9955 37.5897C70.9958 37.5897 75.8809 39.5258 78.5153 43.3441C80.771 46.6136 80.771 50.3068 80.771 52.7536L80.771 65.3284C80.771 67.0441 82.1618 68.4349 83.8776 68.4349C85.5933 68.4349 86.9841 67.0441 86.9841 65.3284L86.9841 39.0995C86.9843 38.0192 87.5457 37.0165 88.4667 36.4517C89.3877 35.887 90.5359 35.8412 91.4989 36.331C99.4086 40.3537 107.452 33.9156 105.684 26.0671C104.967 23.1046 102.846 20.68 100.006 19.5747C97.165 18.4693 93.9634 18.8228 91.4324 20.5213C90.6339 21.0566 89.6326 21.1921 88.7205 20.8882C87.8085 20.5843 87.0885 19.8753 86.7707 18.968C85.4569 15.2359 81.9317 12.7386 77.9751 12.7371C76.2709 12.7291 74.5996 13.2056 73.1558 14.1109C71.8729 14.9224 70.1914 14.6879 69.1794 13.5563C64.5301 8.26908 57.5974 5.57696 50.5982 6.34089C43.5991 7.10482 37.4104 11.2291 34.0111 17.3948C33.3914 18.4995 32.1631 19.1173 30.9067 18.9562C29.9712 18.8361 29.0289 18.7758 28.0856 18.7757C16.0243 18.7757 6.21315 28.4844 6.21315 40.4758L6.21315 77.7547ZM90.4014 152.844L28.2698 152.844C24.3222 152.839 20.8045 150.351 19.4844 146.631L65.3965 146.631C67.1123 146.631 68.5031 145.24 68.5031 143.524C68.5031 141.808 67.1123 140.417 65.3965 140.417L18.9501 140.417L18.9501 55.7651C25.9936 54.6975 32.0555 50.2207 35.1478 43.8029C35.7618 43.7897 36.3556 44.0224 36.7971 44.4494C40.3409 47.9334 45.1296 49.8578 50.0989 49.7947C55.0682 49.7317 59.8064 47.6864 63.2608 44.1136C63.4537 43.9151 63.7187 43.803 63.9955 43.8029C68.8315 43.8029 71.9958 44.8358 73.4013 46.8725C74.5597 48.55 74.5588 50.8846 74.5578 52.7595L74.5578 65.3283C74.62 73.315 82.0136 74.4955 83.8776 74.5577C85.9279 74.4955 93.1352 73.8742 93.1973 65.328L93.1973 43.4382C95.35 43.8735 97.5681 43.8742 99.7211 43.4404L99.7211 140.417L90.2429 140.417C89.138 140.417 88.1167 141.005 87.564 141.962C87.0113 142.919 87.0113 144.098 87.564 145.055C88.1167 146.011 89.138 146.6 90.2429 146.599L99.1868 146.599C97.8702 150.327 94.3544 152.826 90.4014 152.844ZM121.467 56.2292C126.612 56.235 130.781 60.4042 130.787 65.5489L130.787 118.671C130.781 123.816 126.612 127.985 121.467 127.991L105.934 127.991L105.934 121.778L121.467 121.778C123.183 121.778 124.574 120.387 124.574 118.671L124.574 65.5489C124.574 63.8332 123.183 62.4424 121.467 62.4424L105.934 62.4424L105.934 56.2292L121.467 56.2292ZM118.361 68.6555L105.934 68.6555L105.934 115.565L118.361 115.565L118.361 68.6555Z" id="Trazado_91" fill="#343433" fill-rule="evenodd" stroke="none" />
            </g>
            <g id="Grupo_40" transform="translate(24.98059 97.33759)">
              <path d="M0.000929091 29.5808L6.02489 25.9346C7.19793 27.9955 8.24422 29.7393 10.7804 29.7393C13.2219 29.7393 14.7435 28.788 14.7435 25.1105L14.7435 0L22.098 0L22.098 25.2049C22.098 32.8471 17.6276 36.3333 11.0647 36.3333C5.16779 36.3333 1.74497 33.2578 0 29.5802" transform="translate(0 0.4756092)" id="Trazado_88" fill="#343433" stroke="none" />
              <path d="M0.000303377 29.264L6.02426 25.7765C7.60861 28.3761 9.67045 30.2469 13.3163 30.2469C16.3608 30.2469 18.326 28.7246 18.326 26.6007C18.326 24.0645 16.3285 23.1766 12.9361 21.6864L11.097 20.8936C5.77047 18.6426 2.25134 15.7889 2.25134 9.7649C2.25134 4.21656 6.4679 0 13.0622 0C17.7531 0 21.1468 1.64866 23.5566 5.89721L17.8178 9.57508C16.5497 7.32406 15.1862 6.40451 13.0622 6.40451C10.906 6.40451 9.54309 7.76799 9.54309 9.57508C9.54309 11.7944 10.9063 12.6817 14.0768 14.0455L15.9159 14.8382C22.1937 17.5329 25.7128 20.2599 25.7128 26.4419C25.7128 33.1002 20.4813 36.7144 13.4748 36.7144C6.59465 36.8095 2.15597 33.5442 0 29.264" transform="translate(26.12445 0)" id="Trazado_89" fill="#343433" stroke="none" />
            </g>
            <path d="M7.95284 8.70231C9.13334 8.64018 9.94105 7.4544 9.94105 6.15492C9.94105 4.29097 8.45952 2.33941 7.02087 1.30865C5.86903 0.414174 4.43977 -0.0475917 2.98232 0.00388169C1.68284 0.00388169 0 1.18966 0 2.48915C0 3.78863 1.06152 4.60162 2.361 4.60162C3.61947 4.60162 5.21906 5.5336 5.59184 6.83836C5.84036 8.20526 6.77234 8.76445 7.95284 8.70231L7.95284 8.70231Z" transform="translate(56.16687 10.31012)" id="Trazado_93" fill="#343433" stroke="none" />
            <path d="M0 2.89719C0 1.29712 1.29712 0 2.89719 0C4.49727 0 5.79439 1.29712 5.79439 2.89719C5.79439 4.49727 4.49727 5.79439 2.89719 5.79439C1.29712 5.79439 0 4.49727 0 2.89719Z" transform="translate(59.10913 22.67444)" id="Elipse_22" fill="#343433" stroke="none" />
            <path d="M7.60222 2.35292C7.60267 1.05425 6.54959 0.000447954 5.25011 0C2.35183 0.00308354 0.00308117 2.35183 0 5.25011C0.000450325 6.55041 1.05425 7.60348 2.35374 7.60303C3.65322 7.60303 4.32517 6.54959 4.32517 5.25011C4.32517 4.95032 4.95083 4.24296 5.25062 4.24296C6.54909 4.24265 7.60222 3.65271 7.60222 2.35292L7.60222 2.35292Z" transform="translate(38.37946 12.04218)" id="Trazado_94" fill="#343433" stroke="none" />
            <path d="M0 2.02796C0 0.907948 0.907956 0 2.02798 0C3.148 0 4.05595 0.907948 4.05595 2.02796C4.05595 3.14797 3.148 4.05592 2.02798 4.05592C0.907956 4.05592 0 3.14797 0 2.02796Z" transform="translate(38.05804 23.0864)" id="Elipse_23" fill="#343433" stroke="none" />
            <path d="M5.71598 1.76888C5.71599 1.29942 5.52938 0.849174 5.19723 0.517418C4.86512 0.185646 4.41473 -0.000541687 3.94529 0C1.76765 0.00308228 0.00309658 1.76762 0 3.94531C0.0128241 4.91294 0.800932 5.6907 1.7687 5.69073C2.73646 5.6907 3.52457 4.91294 3.5374 3.94524C3.53824 3.72034 3.72037 3.53822 3.94526 3.53738C4.4147 3.53789 4.86509 3.35184 5.19724 3.02017C5.52936 2.68838 5.71598 2.23827 5.71598 1.76888L5.71598 1.76888Z" transform="matrix(-0.08715577 0.9961947 -0.9961947 -0.08715577 102.2149 21.70724)" id="Trazado_95" fill="#343433" stroke="none" />
            <path d="M0 1.56257C0 0.699586 0.699601 0 1.5626 0C2.4256 0 3.12521 0.699586 3.12521 1.56257C3.12521 2.42555 2.4256 3.12514 1.5626 3.12514C0.699601 3.12514 0 2.42555 0 1.56257Z" transform="translate(98.01495 29.6102)" id="Elipse_24" fill="#343433" stroke="none" />
            <path d="M2.10002 2.47467C1.09474 3.62097 4.76837e-07 5.33362 0 6.917C-4.76837e-07 8.21647 0.800554 8.61318 2.10001 8.61314C3.39232 8.20932 3.23078 7.56316 3.79616 5.867C4.68463 4.33236 5.16925 3.84777 6.46157 3.4439C7.59232 2.87852 8.25805 2.4548 8.07695 1.3439C7.71504 0.499235 6.86261 -0.198803 5.41156 0.0516014C4.13167 0.271852 2.57593 1.93105 2.10002 2.47467L2.10002 2.47467Z" transform="matrix(0.9925461 -0.1218693 0.1218693 0.9925461 8.806671 26.61899)" id="Trazado_96" fill="#343433" stroke="none" />
            <path d="M0 1.56259C0 0.699596 0.699613 0 1.56263 0C2.42564 0 3.12526 0.699596 3.12526 1.56259C3.12526 2.42559 2.42564 3.12518 1.56263 3.12518C0.699613 3.12518 0 2.42559 0 1.56259Z" transform="translate(8.856232 36.75531)" id="Elipse_25" fill="#343433" stroke="none" />
          </g>
        </g>
      </g>
    </g>
  </g>
</svg>